<svg width="339" height="143" viewBox="0 0 339 143" fill="none" xmlns="http://www.w3.org/2000/svg">
<path d="M98.745 42.6306L0.612694 0.687012C-2.55286 29.177 11.9559 42.6306 19.606 45.7962L98.745 77.4518V42.6306Z" fill="url(#paint0_linear_1301_549)"/>
<path d="M89.245 51.336C94.943 48.8036 94.0762 42.8946 92.7572 40.2566L98.7417 42.6308C103.837 45.0049 104.428 47.3791 104.281 48.9619V74.2863C104.281 78.7181 101.643 81.4088 100.324 82.2002L37.8047 110.69V75.0777C52.5773 68.219 83.547 53.8685 89.245 51.336Z" fill="url(#paint1_linear_1301_549)"/>
<path d="M48.9059 82.9919C43.2079 80.4595 44.4213 74.5504 45.7403 71.9125L39.4092 74.2866C35.7843 75.8694 33.8695 78.2436 33.8695 80.6178V105.942C33.8695 110.374 36.5074 113.065 37.8264 113.856L103.512 142.346V106.734C88.7391 99.8749 54.6039 85.5244 48.9059 82.9919Z" fill="#136DE4"/>
<path d="M194.666 98.0251H181.411L171.128 83.2559H159.778V98.0251H147.438V45.0074H170.518C184.763 45.0074 193.675 52.3542 193.675 64.2453C193.675 72.1979 189.638 78.0299 182.706 80.9837L194.666 98.0251ZM181.183 64.2453C181.183 58.4133 177.374 55.0051 169.833 55.0051H159.778V73.4855H169.833C177.374 73.4855 181.183 70.0015 181.183 64.2453Z" fill="black"/>
<path d="M270.714 45.0074H282.521L265.077 98.0251H251.823L240.092 62.1246L227.98 98.0251H214.802L197.282 45.0074H210.079L222.115 82.2713L234.684 45.0074H246.11L258.298 82.5742L270.714 45.0074Z" fill="black"/>
<path d="M325.94 98.0251L321.218 86.6642H296.461L291.738 98.0251H279.093L302.86 45.0074H315.048L338.89 98.0251H325.94ZM300.422 77.3482H317.333L308.877 57.05L300.422 77.3482Z" fill="black"/>
<defs>
<linearGradient id="paint0_linear_1301_549" x1="0.612689" y1="9.3923" x2="104.285" y2="63.2068" gradientUnits="userSpaceOnUse">
<stop stop-color="#136DE4"/>
<stop offset="1" stop-color="#A5CCFF"/>
</linearGradient>
<linearGradient id="paint1_linear_1301_549" x1="105.073" y1="63.9983" x2="19.9494" y2="101.194" gradientUnits="userSpaceOnUse">
<stop stop-color="#136DE4"/>
<stop offset="1" stop-color="#7FB6FF"/>
</linearGradient>
</defs>
</svg>
